<?xml version="1.0" encoding="utf-8"?>
<!-- Generator: Adobe Illustrator 25.0.0, SVG Export Plug-In . SVG Version: 6.00 Build 0)  -->
<svg version="1.1" xmlns="http://www.w3.org/2000/svg" xmlns:xlink="http://www.w3.org/1999/xlink" x="0px" y="0px"
	 viewBox="0 0 1268.6 928" style="enable-background:new 0 0 1268.6 928;" xml:space="preserve">
<style type="text/css">
	.st0{fill:#FF9900;}
</style>
<g id="Calque_1" xmlns:svgjs="http://svgjs.com/svgjs">
	<g>
		<g>
			<g>
				<path class="st0" d="M762.8,493.3v110.1l-89.5-89.5c-12.7-12.7-29.6-19.7-47.6-19.7c-18,0-34.8,7-47.6,19.7L379.7,712.3v-42
					c0-7-5.7-12.8-12.8-12.8h-49.2l-39.5-39.5c-12.7-12.7-29.6-19.7-47.6-19.7c-18,0-34.9,7-47.6,19.7l-39.5,39.5H80.9
					c-7.1,0-12.8,5.7-12.8,12.8v62.8l-42.6,42.6V370.7c0-23,18.7-41.7,41.7-41.7H620v-25.5H67.3C30.2,303.5,0,333.6,0,370.7v490.4
					c0,37.1,30.2,67.3,67.3,67.3h653.8c37.1,0,67.3-30.2,67.3-67.3V493.3H762.8z M201.2,636.2c7.9-7.9,18.4-12.2,29.5-12.2
					c11.1,0,21.6,4.3,29.5,12.2l21.4,21.4H179.8L201.2,636.2z M93.7,683.2h260.5v41.3c0,0.2,0,0.5,0,0.7v0.5H93.7V683.2z
					 M67.3,902.8c-23,0-41.7-18.7-41.7-41.7v-49.2l60.6-60.6h280.8c2.4,0,4.6-0.7,6.5-1.8l153.3,153.4H67.3z M762.8,861.1
					c0,23-18.7,41.7-41.7,41.7H562.9L394.1,734l202.1-202.1c7.9-7.9,18.4-12.2,29.5-12.2s21.6,4.3,29.5,12.2l107.6,107.6V861.1z"/>
			</g>
		</g>
		<g>
			<g>
				<path class="st0" d="M489.5,480.5h-29.3c-1.8-9.1-5.3-17.5-10.3-24.9l20.8-20.8c5-5,5-13.1,0-18.1s-13.1-5-18.1,0l-20.8,20.8
					c-7.4-5-15.8-8.6-24.9-10.3V398c0-7-5.7-12.8-12.8-12.8c-7,0-12.8,5.7-12.8,12.8v29.3c-9.1,1.8-17.5,5.3-24.9,10.3l-20.8-20.8
					c-5-5-13.1-5-18.1,0c-5,5-5,13.1,0,18.1l20.8,20.7c-5,7.4-8.6,15.8-10.3,24.9h-29.3c-7,0-12.8,5.7-12.8,12.8
					c0,7,5.7,12.8,12.8,12.8h29.3c1.8,9.1,5.3,17.5,10.3,24.9l-20.8,20.8c-5,5-5,13.1,0,18.1c2.5,2.5,5.8,3.7,9,3.7s6.5-1.3,9-3.7
					l20.8-20.8c7.4,5,15.8,8.6,24.9,10.3v29.3c0,7,5.7,12.8,12.8,12.8c7.1,0,12.8-5.7,12.8-12.8v-29.3c9.1-1.8,17.5-5.3,24.9-10.3
					l20.8,20.8c2.5,2.5,5.8,3.7,9,3.7c3.3,0,6.5-1.3,9-3.7c5-5,5-13.1,0-18.1L449.9,531c5-7.4,8.6-15.8,10.3-24.9h29.3
					c7.1,0,12.8-5.7,12.8-12.8C502.3,486.3,496.6,480.5,489.5,480.5z M394.2,535c-23,0-41.7-18.7-41.7-41.7
					c0-23,18.7-41.7,41.7-41.7c23,0,41.7,18.7,41.7,41.7C435.9,516.3,417.2,535,394.2,535z"/>
			</g>
		</g>
		<g>
			<g>
				<path class="st0" d="M366.9,780.2H80.9c-7.1,0-12.8,5.7-12.8,12.8s5.7,12.8,12.8,12.8h286.1c7.1,0,12.8-5.7,12.8-12.8
					S374,780.2,366.9,780.2z"/>
			</g>
		</g>
		<g>
			<g>
				<path class="st0" d="M258,834.7H80.9c-7.1,0-12.8,5.7-12.8,12.8c0,7.1,5.7,12.8,12.8,12.8H258c7.1,0,12.8-5.7,12.8-12.8
					C270.7,840.4,265,834.7,258,834.7z"/>
			</g>
		</g>
	</g>
	<circle class="st0" cx="620" cy="316.2" r="12.8"/>
	<path class="st0" d="M775.6,411.1L775.6,411.1c-7.1,0-12.8-5.7-12.8-12.8V234.1c0-7.1,5.7-12.8,12.8-12.8h0
		c7.1,0,12.8,5.7,12.8,12.8v164.3C788.3,405.4,782.6,411.1,775.6,411.1z"/>
	<path class="st0" d="M680.7,316.2L680.7,316.2c0-7.1,5.7-12.8,12.8-12.8h164.3c7.1,0,12.8,5.7,12.8,12.8l0,0
		c0,7.1-5.7,12.8-12.8,12.8H693.4C686.4,329,680.7,323.3,680.7,316.2z"/>
	<path class="st0" d="M775.6,649.5L775.6,649.5c-7.1,0-12.8-5.7-12.8-12.8V472.4c0-7.1,5.7-12.8,12.8-12.8h0
		c7.1,0,12.8,5.7,12.8,12.8v164.3C788.3,643.8,782.6,649.5,775.6,649.5z"/>
</g>
<g id="repères">
</g>
</svg>
