<svg xmlns="http://www.w3.org/2000/svg" viewBox="0 0 405.13 512"><defs><style>.cls-1{fill:#fff;}</style></defs><g id="Calque_2" data-name="Calque 2"><g id="Calque_1-2" data-name="Calque 1"><path class="cls-1" d="M396.77,407.45c-1.51-1-12.84-8.91-24.18-32.91-20.83-44.09-25.2-106.18-25.2-150.51,0-.2,0-.39,0-.58A145.28,145.28,0,0,0,261.87,91.69V57a57.06,57.06,0,0,0-57-57h-4.71a57.06,57.06,0,0,0-57,57V91.69A145.28,145.28,0,0,0,57.74,224c0,44.33-4.37,106.42-25.2,150.51-11.34,24-22.67,31.93-24.18,32.91A14.59,14.59,0,0,0,.35,424c1.48,6.94,8,11.72,15.05,11.72H125.34a77.23,77.23,0,0,0,154.45,0h110c7.08,0,13.56-4.78,15-11.72A14.6,14.6,0,0,0,396.77,407.45ZM173.26,57a27,27,0,0,1,27-27h4.72a27,27,0,0,1,26.94,27V82a145.53,145.53,0,0,0-58.6,0V57ZM202.57,482a47.34,47.34,0,0,1-47.23-46.19h94.45A47.34,47.34,0,0,1,202.57,482ZM263,405.71H49.58a153.51,153.51,0,0,0,7.86-13.8c20.11-39.64,30.3-96.12,30.3-167.88,0-63.42,51.51-115,114.82-115s114.82,51.59,114.82,115.06c0,.18,0,.36,0,.55.06,71.47,10.25,127.75,30.3,167.28a156,156,0,0,0,7.86,13.8Z"/></g></g></svg>