<svg xmlns="http://www.w3.org/2000/svg" viewBox="0 0 800 804.32"><defs><style>.cls-1{fill:#fff;}.cls-2{fill:#ff931e;}</style></defs><g id="Calque_2" data-name="Calque 2"><g id="logo"><rect class="cls-1" width="800" height="800" rx="20"/><path class="cls-2" d="M141.65,722.16v57.07h41.58V724.12h23.61v55.11h75.28v25.09H118V722.16Z"/><path class="cls-2" d="M178.55,621.05V596.94H282.12v24.11H271.3a39.76,39.76,0,0,1,14,31c0,32-26.57,50.19-55.11,50.19-33.7,0-54.36-23.12-54.36-50.43,0-7.63,2-20.91,14.76-30.75Zm52.16,56.58c18,0,33-11.32,33-28.78,0-15.26-11.07-29.28-32.72-29.28-22.63,0-33.45,14-33.45,29.28C197.5,666.31,212.26,677.63,230.71,677.63Z"/><path class="cls-2" d="M210.29,478.86c-10.83,11.07-12.79,21.89-12.79,29.27,0,11.32,4.67,18.45,9.1,22.88s12.3,8.86,23.86,8.86c12,0,20.17-4.67,24.85-9.35a31.34,31.34,0,0,0,8.36-21.89,40.38,40.38,0,0,0-13.28-29.77H277.2c3.69,5.9,8.12,15.5,8.12,31.49,0,17.22-4.92,29.52-15.25,39.36-7.63,7.38-19.93,14.76-38.87,14.76-19.44,0-32.47-8.12-40.1-15.74-8.12-8.12-15.25-21.16-15.25-41.58a55.6,55.6,0,0,1,7.38-28.29Z"/><path class="cls-2" d="M258.5,355.61a54.29,54.29,0,0,1,18.95,17.47c5.41,8.37,7.87,19.44,7.87,30.51,0,13.77-3.44,25.09-13.28,34.93s-24.11,15.25-39.61,15.25c-16,0-31.49-5.66-42.56-16.48-8.61-8.61-14-19.93-14-34.69,0-16.48,7.13-27.06,13.53-33.21,13.77-13.28,33-14.51,43.79-14.51h3v74.29c7.38-.49,15.74-3.69,20.91-8.86,5.66-5.65,6.64-12.54,6.64-18.45,0-6.64-1.48-11.56-5.17-16.48a37.2,37.2,0,0,0-11.31-9.59Zm-42.06,23.87a25,25,0,0,0-14,7.38c-3,3.2-5.91,8.36-5.91,16.23,0,8.37,3.45,13.78,6.64,17a27.18,27.18,0,0,0,13.29,7.38Z"/><path class="cls-2" d="M282.12,312.9,105.74,278.46l127.43-57.07L105.74,163.82l176.38-31v25.58l-98.89,16.73,106.52,47.72L183,270.09l99.14,17.22Z"/><path class="cls-2" d="M258.5,2.7a54.17,54.17,0,0,1,18.95,17.46c5.41,8.37,7.87,19.44,7.87,30.51,0,13.77-3.44,25.09-13.28,34.93s-24.11,15.25-39.61,15.25c-16,0-31.49-5.66-42.56-16.48-8.61-8.61-14-19.93-14-34.69,0-16.48,7.13-27.06,13.53-33.21C203.15,3.19,222.34,2,233.17,2h3V76.25c7.38-.49,15.74-3.69,20.91-8.86,5.66-5.65,6.64-12.54,6.64-18.45,0-6.64-1.48-11.56-5.17-16.48a37.2,37.2,0,0,0-11.31-9.59ZM216.44,26.56a25,25,0,0,0-14,7.38c-3,3.2-5.91,8.36-5.91,16.23,0,8.37,3.45,13.78,6.64,17a27.18,27.18,0,0,0,13.29,7.38Z"/></g></g></svg>