<svg xmlns="http://www.w3.org/2000/svg" viewBox="0 0 452.48 624.01"><defs><style>.cls-1,.cls-2{fill:#f90;}.cls-2{stroke:#f90;stroke-miterlimit:10;stroke-width:2px;}</style></defs><g id="Calque_2" data-name="Calque 2"><g id="Calque_1-2" data-name="Calque 1"><g id="openTrash"><path class="cls-1" d="M129,559h0a16,16,0,0,1-16-16V335a16,16,0,0,1,16-16h0a16,16,0,0,1,16,16V543A16,16,0,0,1,129,559Z"/><path class="cls-1" d="M209,559h0a16,16,0,0,1-16-16V335a16,16,0,0,1,16-16h0a16,16,0,0,1,16,16V543A16,16,0,0,1,209,559Z"/><path class="cls-1" d="M289,559h0a16,16,0,0,1-16-16V335a16,16,0,0,1,16-16h0a16,16,0,0,1,16,16V543A16,16,0,0,1,289,559Z"/><path class="cls-2" d="M416.6,276.31s14.7-25.5,30.6-53-17.6-48.1-17.6-48.1l-145.5-84-145.5-84S104-11.49,88.1,16,57.5,69,57.5,69s-8.5,14.3,6.1,22.8,165.1,95.3,165.1,95.3,150.5,86.9,165.1,95.3S416.6,276.31,416.6,276.31Zm-20.2-27.9L91.6,72.41s16.6-28.8,20.1-34.8,10.5-2.9,10.5-2.9S409,200.41,414.4,203.51s2.4,9.7,2.4,9.7Z"/><path class="cls-2" d="M365,109.21c3.2-10.9,8.3-40.4-21.2-57.5l-27.7-16-27.7-16c-29.5-17.1-52.5,2.2-60.4,10.4a33.59,33.59,0,0,0-4.5,6l-8.7,15.1-2,3.5,138.6,80,2-3.5,8.7-15.1A41.93,41.93,0,0,0,365,109.21Zm-39.4,6-83.1-48,9.1-15.8s7.3-11.7,20.7-3.9,27.7,16,27.7,16,14.3,8.3,27.7,16,7,19.9,7,19.9Z"/><path class="cls-2" d="M1,255v16s1.5,16,16,16h8.7l13.8,290.3s.8,42.1,47.9,45.7h243s45.8-1.6,47.9-45.7L392.1,287h12.6a4.54,4.54,0,0,0,2.7-.6c1.8-1,3.7-3.6,3.7-10V255Zm345.1,320.4c0,15.5-15.6,15.6-15.6,15.6H87.5c-14.5,0-16-15.2-16-15.2L57.7,287H360.2S346.1,559.91,346.1,575.41Z"/><path class="cls-2" d="M405.8,259.61H6.6A5.59,5.59,0,0,1,1,254H1a5.59,5.59,0,0,1,5.6-5.6H405.8a5.59,5.59,0,0,1,5.6,5.6h0A5.72,5.72,0,0,1,405.8,259.61Z"/><path class="cls-2" d="M412.7,279.11l-5.7-.9a.83.83,0,0,0-.9,1.1l1.9,5a.86.86,0,0,0,1.4.3l3.8-4.2A.76.76,0,0,0,412.7,279.11Z"/></g></g></g></svg>