<svg xmlns="http://www.w3.org/2000/svg" viewBox="0 0 544.38 539.72"><defs><style>.cls-1{fill:#f90;}.cls-2{fill:none;}</style></defs><g id="Calque_2" data-name="Calque 2"><g id="Calque_1-2" data-name="Calque 1"><path class="cls-1" d="M504.42,221.39q-6.6.51-13.34.52a168.91,168.91,0,0,1-25.2-1.88,218.51,218.51,0,0,1-31.29,190.44,183.73,183.73,0,0,0-97.87-126,109.68,109.68,0,1,0-161.59,0,183.73,183.73,0,0,0-97.87,126c-70.09-98.74-46.88-235.6,51.86-305.7A218.91,218.91,0,0,1,324.6,75.29s0,0,0-.06a169.27,169.27,0,0,1-1.32-21.12q0-8.19.78-16.18l-17.61-4.7L300,31.5l-.09,0a254.62,254.62,0,0,0-44-3.74C114.76,27.57.18,141.86,0,283A255.61,255.61,0,0,0,78.78,467.92c.15.14.2.36.35.49,1.48,1.43,3.09,2.63,4.58,4,4.12,3.65,8.23,7.43,12.56,11,2.32,1.83,4.74,3.66,7.11,5.34,4.1,3,8.19,6.11,12.47,8.92,2.91,1.83,5.9,3.66,8.88,5.49,4,2.37,7.88,4.77,12,6.94,3.45,1.83,7,3.4,10.49,5.06,3.84,1.83,7.62,3.66,11.55,5.3s7.88,2.93,11.87,4.36,7.42,2.74,11.24,3.91c4.31,1.3,8.74,2.3,13.12,3.38,3.66.89,7.21,1.92,11,2.65,5,1,10.17,1.64,15.28,2.34,3.17.44,6.26,1.06,9.45,1.37,8.38.82,16.82,1.28,25.34,1.28s17-.46,25.33-1.28c3.2-.31,6.29-.93,9.45-1.37,5.12-.7,10.24-1.33,15.29-2.34,3.65-.73,7.31-1.83,11-2.65,4.39-1.08,8.82-2.09,13.13-3.38,3.82-1.17,7.51-2.6,11.24-3.91s8-2.75,11.86-4.36,7.72-3.49,11.56-5.3c3.51-1.66,7-3.23,10.49-5.06,4.08-2.17,8-4.57,12-6.94,3-1.83,6-3.5,8.88-5.49,4.28-2.81,8.37-5.87,12.46-8.92,2.38-1.83,4.79-3.47,7.12-5.34,4.33-3.47,8.44-7.16,12.55-11,1.5-1.38,3.11-2.58,4.59-4,.15-.13.2-.35.35-.49A255.49,255.49,0,0,0,504.42,221.39ZM192.18,174.31a73.12,73.12,0,1,1,99.58,99.57.37.37,0,0,0-.31.11,77.29,77.29,0,0,1-15.29,6.47c-1,.27-1.82.64-2.83.88-1.83.47-3.75.8-5.63,1.13A74.31,74.31,0,0,1,257,283.55h-2.08a74.17,74.17,0,0,1-10.73-1.08c-1.83-.33-3.77-.66-5.63-1.13-1-.24-1.83-.61-2.84-.88A77.2,77.2,0,0,1,220.41,274l-.33-.11A73.12,73.12,0,0,1,192.18,174.31Zm207.7,274.47c-3.33,2.92-6.76,5.7-10.24,8.39-2,1.57-4.09,3.12-6.19,4.62-3.31,2.4-6.67,4.67-10.09,6.84-2.49,1.59-5,3.13-7.59,4.63q-4.83,2.73-9.8,5.48c-2.92,1.5-5.9,2.91-8.9,4.3s-6.31,2.87-9.54,4.16-6.67,2.53-10.06,3.66c-3.08,1.06-6.17,2.16-9.3,3.09-3.66,1.09-7.48,2-11.26,2.91-3,.69-5.89,1.48-8.88,2.06-4.34.84-8.76,1.43-13.2,2-2.52.33-5,.79-7.57,1-7,.68-14.13,1.08-21.31,1.08s-14.3-.4-21.32-1.08c-2.54-.25-5-.71-7.57-1-4.44-.6-8.86-1.19-13.19-2-3-.58-5.93-1.37-8.89-2.06-3.78-.92-7.55-1.83-11.26-2.91-3.12-.93-6.21-2-9.3-3.09-3.38-1.17-6.77-2.36-10.06-3.66s-6.39-2.72-9.54-4.16-6-2.8-8.9-4.3c-3.31-1.72-6.58-3.53-9.8-5.48-2.56-1.5-5.1-3-7.59-4.63-3.41-2.17-6.78-4.44-10.09-6.84-2.1-1.49-4.15-3.05-6.19-4.62-3.48-2.69-6.91-5.48-10.24-8.39-.8-.6-1.54-1.37-2.32-2.07a146.64,146.64,0,0,1,99.68-137,108.41,108.41,0,0,0,93.12,0,146.66,146.66,0,0,1,99.68,137C401.4,447.41,400.67,448.1,399.88,448.78Z"/><path class="cls-1" d="M508,238l-1.74-8.8-1.81-7.78s-3.77-14.09-11.13-15.64S461.91,205,465.88,220"/><path class="cls-1" d="M324.59,75.23l-.58-.18L306.44,33.23l17.61,4.7,9.8,2.59c5.27,2.46,11.8,6.34,12.45,10.66C347.4,58.45,343.4,81,324.59,75.23Z"/><path class="cls-2" d="M300,31.5l6.43,1.73"/><rect class="cls-1" x="357.29" y="75.35" width="187.09" height="36.39" rx="18.19"/><rect class="cls-1" x="357.29" y="75.35" width="187.09" height="36.39" rx="18.19" transform="translate(357.29 544.38) rotate(-90)"/></g></g></svg>